<svg version="1.1" xmlns="http://www.w3.org/2000/svg" xmlns:xlink="http://www.w3.org/1999/xlink" width="371.54649" height="151.61288" viewBox="0,0,371.54649,151.61288"><defs><radialGradient cx="240" cy="180" r="74.80644" gradientUnits="userSpaceOnUse" id="color-1"><stop offset="0" stop-color="#ffe300"/><stop offset="1" stop-color="#914c00"/></radialGradient></defs><g transform="translate(-164.19356,-104.19355)"><g data-paper-data="{&quot;isPaintingLayer&quot;:true}" stroke-miterlimit="10" stroke-dasharray="" stroke-dashoffset="0" style="mix-blend-mode: normal"><path d="M518.22354,175.996l-207.20721,13.01301l-10.51051,-21.02102l234.23423,9.00901" fill="#ffab19" fill-rule="nonzero" stroke="#000000" stroke-width="2" stroke-linecap="round" stroke-linejoin="miter"/><path d="M240,105.19355c41.31446,0 74.80644,33.49198 74.80644,74.80644c0,41.31446 -33.49198,74.80644 -74.80644,74.80644c-41.31446,0 -74.80644,-33.49198 -74.80644,-74.80644c0,-41.31446 33.49198,-74.80644 74.80644,-74.80644z" fill="url(#color-1)" fill-rule="nonzero" stroke="#000000" stroke-width="2" stroke-linecap="butt" stroke-linejoin="miter"/><g fill-rule="evenodd"><path d="M218.9,164.7c-0.4,0.8 -1.3,2.5 -4.7,0.1c-3.4,-2.4 -4.1,-9.3 -4.1,-10.1c-0.1,-3.1 -0.1,-6.9 1.3,-11.1c4,-12.2 17.1,-12.3 19.2,-8.4c2.1,3.8 -6,5.5 -10.9,11c-2.2,2.4 -3,5.3 -3.5,7.7c-0.6,3.4 3.2,9.9 2.7,10.8z" fill="#ffab19" stroke="#001026" stroke-width="1.2" stroke-linecap="round" stroke-linejoin="round"/><path d="M227,139.89999c-2.7,1.6 -6.5,4.7 -6.5,4.7c0,0 0.9,-3.7 -0.8,-5.8c-1.3,-1.7 -3.5,-1.3 -4.2,-1.1c1.3,-1.3 3.1,-2.9 6.6,-3.9c3.5,-1 7.7,0 8.3,2c0.4,2 -1.1,2.5 -3.4,4.1z" fill="#ffffff" stroke="none" stroke-width="1" stroke-linecap="butt" stroke-linejoin="miter"/></g><path d="M208.5,169.7c-1.2,-1.8 -5.6,-8 -8.1,-15.9l-0.1,-0.4c-0.1,-0.4 -0.6,-0.6 -1,-0.4c-2.4,1.7 -7.2,4.8 -8.9,-0.7c-1.7,-5.3 12.4,-15.2 16.1,-11c1.4,1.9 0.7,3.6 0.3,4.5c-0.2,0.5 -0.2,1 -0.1,1.5c0.4,1.2 1.2,3.4 2.1,5.1c2.2,4.3 3.1,5.3 4.6,7.3c1.5,2 5.2,6.6 2,10.3c-2.7,3.2 -5.7,1.4 -6.9,-0.3z" fill="#ffab19" fill-rule="evenodd" stroke="#001026" stroke-width="1.2" stroke-linecap="round" stroke-linejoin="round"/><path d="M229.3,185.59999c-0.4,0.5 -7.6,6.6 -5.8,8.6c2.1,2.4 6.2,5.7 2.9,9.3c-3.3,3.6 -8.9,-3.2 -10.4,-6.1c-3.1,-6.9 2.8,-12.5 4.4,-13.7c1.6,-1.2 4.3,-3.3 6.9,-3.3c2.8,0.1 3.5,3.5 2,5.2z" fill="#ffab19" fill-rule="evenodd" stroke="#001026" stroke-width="1.2" stroke-linecap="round" stroke-linejoin="round"/><g fill-rule="evenodd"><path d="M206,185.7c-1.9,2.1 -5.8,6.7 -5.8,6.7c0,0 2.5,14.3 -4.7,14.3c-4.3,0 -5.3,-7.2 -4.4,-16.9c0.1,-0.6 0.3,-1.2 0.7,-1.7c1.9,-2.2 7.5,-8.5 11.4,-12.5c5.8,-5.9 9.6,-10.8 9.6,-10.8c8.3,-8.5 11.8,-1.6 16.6,1.1c4.1,2.5 3.3,3.6 2.1,9.6c-0.5,3.4 -0.8,5.4 -0.7,7.6c0.1,3.3 -4.7,2.7 -7.2,1.8c0,0 -3.7,-1.4 -5.6,-2.7c-2.3,-1.6 -3.8,-2.8 -4.7,-4z" fill="#ffab19" stroke="#001026" stroke-width="1.2" stroke-linecap="round" stroke-linejoin="round"/><path d="M213.4,177.3c0,0 1.2,-1.5 2.7,-3.1c1.8,-2 3.3,-4 6.4,-2c2.4,1.8 5.6,3.5 2.7,8c-2.7,4.3 -5.2,2.4 -5.2,2.4c-4.5,-2.2 -6.6,-5.3 -6.6,-5.3z" fill="#ffffff" stroke="none" stroke-width="1" stroke-linecap="butt" stroke-linejoin="miter"/></g><path d="M221.6,162.2c-2.8,2.2 -6.3,5.6 -9.2,1.3c-3.3,-5.9 6.7,-10.8 10.2,-11.8c3.1,-0.9 5.1,1.7 6.8,3.9c3.1,4.3 5.9,7.9 4.4,11.9c-1.8,5 -5.8,1.4 -7.6,-1.1c-1.1,-1.5 -2.3,-3 -3,-4.1c-0.5,-0.3 -1.1,-0.4 -1.6,-0.1z" fill="#ffab19" fill-rule="evenodd" stroke="#001026" stroke-width="1.2" stroke-linecap="round" stroke-linejoin="round"/><g fill-rule="evenodd"><path d="M289,193.7c0.2,0.3 0.1,0.8 -0.3,0.9l-10.7,2.6c0,0 -4.7,6.4 -8,8.3c-5.5,3.2 -10,3.3 -10,3.3c0,0 -2.1,7.1 -7.8,8.3c-5.7,1.2 -16.5,-3.2 -20.2,-22c-3.7,-18.8 1.4,-33.9 12.8,-41c11.4,-7.1 25,4.1 24.2,3.5l17.9,-2.1c0.4,-0.1 0.7,0.4 0.5,0.8l-7.9,12.1c0,0 1.7,4.5 1.9,9.2c0.2,2.8 0,5.2 -0.4,7.5z" fill="#ffab19" stroke="#001026" stroke-width="1.2" stroke-linecap="butt" stroke-linejoin="miter"/><path d="M259.6,208.5c0,0 -1.8,6.9 -7.5,8.1c-5.7,1.2 -16,-3.6 -19.6,-22.2c-5,-24.2 9.4,-35.7 20,-29c10.7,6.7 1.6,18.2 2.2,26.6c0.5,7.2 6.8,8 4.9,16.5z" fill="#ffffff" stroke="none" stroke-width="1" stroke-linecap="butt" stroke-linejoin="miter"/><path d="M248.9,177c0.4,0 0.7,0.4 0.6,0.8c-0.7,1.9 -2.3,7.3 -2.7,13.3c-0.3,5.4 0,8.6 0.3,10.1c0.1,0.5 -0.4,0.9 -0.9,0.7c-2.7,-0.9 -10.2,-4.7 -9.6,-15.2c1,-9.1 7.4,-10 12.3,-9.7z" fill="#ffffff" stroke="#001026" stroke-width="1.2" stroke-linecap="round" stroke-linejoin="round"/><path d="M258.5,226.9c-3.8,-4.7 -3.9,-11.9 -3.9,-11.9" fill="none" stroke="#001026" stroke-width="1.2" stroke-linecap="round" stroke-linejoin="round"/><path d="M247.3,225.6c-0.5,-6.3 1.4,-10.2 1.4,-10.2" fill="none" stroke="#001026" stroke-width="1.2" stroke-linecap="round" stroke-linejoin="round"/><path d="M257.3,191.59999c0,2.1 -0.2,4.3 -0.9,4.4c-1.4,0.1 -4.2,-1.4 -4.3,-3c-0.2,-1.8 2.3,-6 3.9,-6c1.2,-0.1 1.3,2.6 1.3,4.6z" fill="#001026" stroke="#001026" stroke-width="1.2" stroke-linecap="round" stroke-linejoin="round"/><path d="M258.8,146.59999c0,0 -2.8,8.6 -5.9,12.1" fill="none" stroke="#001026" stroke-width="1.2" stroke-linecap="round" stroke-linejoin="round"/><path d="M249.4,159c-1.7,-4.3 -0.6,-11.7 -0.6,-11.7" fill="none" stroke="#001026" stroke-width="1.2" stroke-linecap="round" stroke-linejoin="round"/><g><path d="M269,203.4c-4.5,2.9 -9.6,3 -11.4,0.2c-1.8,-2.8 0.3,-7.4 4.8,-10.4c4.5,-2.9 9.6,-3 11.4,-0.2c1.9,2.8 -0.3,7.5 -4.8,10.4z" fill="#ffffff" stroke="#001026" stroke-width="1.2" stroke-linecap="round" stroke-linejoin="round"/><path d="M263.3,203c-1.1,0 -2,-0.8 -2,-1.8c0,-1 0.9,-1.8 2,-1.8c1.1,0 2,0.8 2,1.8c0,1 -0.9,1.8 -2,1.8" fill="#001026" stroke="none" stroke-width="1" stroke-linecap="butt" stroke-linejoin="miter"/></g><g><path d="M266.2,178.59999c-4.4,3 -9.8,2.8 -11.7,0.1c-1.9,-3.3 -0.5,-7.7 3.9,-10.7c4.4,-3.1 10.1,-3.3 12.3,-0.2c2.3,3.1 -0.1,7.8 -4.5,10.8z" fill="#ffffff" stroke="#001026" stroke-width="1.2" stroke-linecap="round" stroke-linejoin="round"/><path d="M260.4,178c-1.1,0 -2,-0.8 -2,-1.8c0,-1 0.9,-1.8 2,-1.8c1.1,0 2,0.8 2,1.8c-0.1,1 -0.9,1.8 -2,1.8" fill="#001026" stroke="none" stroke-width="1" stroke-linecap="butt" stroke-linejoin="miter"/></g></g></g></g></svg>