<svg version="1.1" xmlns="http://www.w3.org/2000/svg" xmlns:xlink="http://www.w3.org/1999/xlink" width="122.08826" height="33.84453" viewBox="0,0,122.08826,33.84453"><defs><linearGradient x1="118.95708" y1="359.81169" x2="241.044" y2="359.81169" gradientUnits="userSpaceOnUse" id="color-1"><stop offset="0" stop-color="#ffab19"/><stop offset="1" stop-color="#9a5900"/></linearGradient><linearGradient x1="121.25717" y1="359.83325" x2="238.74114" y2="359.83325" gradientUnits="userSpaceOnUse" id="color-2"><stop offset="0" stop-color="#f2e21f"/><stop offset="1" stop-color="#fca919"/></linearGradient></defs><g transform="translate(-118.95587,-342.43453)"><g data-paper-data="{&quot;isPaintingLayer&quot;:true}" fill-rule="nonzero" stroke="none" stroke-width="1" stroke-linecap="butt" stroke-linejoin="miter" stroke-miterlimit="10" stroke-dasharray="" stroke-dashoffset="0" style="mix-blend-mode: normal"><path d="M241.04413,371.09532c0,2.86265 -5.17058,5.18374 -11.5446,5.18374h-99.00041c-6.37535,0 -11.54325,-2.32169 -11.54325,-5.18374v-22.56807c0,-2.86265 5.1679,-5.18313 11.54325,-5.18313h98.99907c6.37803,0 11.5446,2.32048 11.5446,5.18313v22.56807z" fill="url(#color-1)"/><path d="M238.73988,348.82402v22.01811c0,1.68213 -3.2479,3.0504 -7.24531,3.0504h-102.99348c-3.99323,0 -7.24392,-1.36827 -7.24392,-3.0504v-22.0187c0,-1.68213 3.2507,-3.0504 7.24392,-3.0504h102.99348c3.99741,0 7.24531,1.36886 7.24531,3.05098z" fill="url(#color-2)"/><text transform="translate(126.45197,366.50408) scale(0.38697,0.55332)" font-size="40" xml:space="preserve" fill="#ffffff" fill-rule="nonzero" stroke="none" stroke-width="1" stroke-linecap="butt" stroke-linejoin="miter" stroke-miterlimit="10" stroke-dasharray="" stroke-dashoffset="0" font-family="Sans Serif" font-weight="normal" text-anchor="start" style="mix-blend-mode: normal"><tspan x="0" dy="0">Начать замер</tspan></text></g></g></svg>
